# xmcd
#
# Track frame offsets: 
#        150
#        18075
#        34050
#        50475
#        72450
#        84675
#        104475
#        118650
#        135975
#        153600
#
# Disc length: 2314 seconds
#
# Revision: 0
# Processed by: cddbd v1.5.2PL0 Copyright (c) Steve Scherf et al.
# Submitted via: ExactAudioCopyFreeDBPlugin 1.0
#
DISCID=8309080a
DTITLE=Slim Butler - Bad Intention
DYEAR=2016
DGENRE=Blues
TTITLE0=All About You
TTITLE1=Mean Trouble
TTITLE2=Junk In The Trunk
TTITLE3=It Ain't Me
TTITLE4=Jumpin' Santa
TTITLE5=Bad Intention
TTITLE6=Monkey Moon
TTITLE7=Cryin' Shame
TTITLE8=Lady In Blue
TTITLE9=Coast To Coast
EXTD=
EXTT0=
EXTT1=
EXTT2=
EXTT3=
EXTT4=
EXTT5=
EXTT6=
EXTT7=
EXTT8=
EXTT9=
PLAYORDER=
